<svg width="153" height="116" viewBox="0 0 153 116" fill="none" xmlns="http://www.w3.org/2000/svg">
<path d="M19.8049 69.8232C37.9772 61.2806 53.4453 48.7889 68.9039 36.9114C81.0536 27.5763 93.7267 18.2772 106.864 9.92429C109.456 8.2761 113.233 5.12037 116.313 5.94018C119.365 6.75256 120.774 9.73711 123.052 11.3428C128.662 15.2971 133.496 20.3555 137.88 25.2497C142.705 30.6374 133.748 34.9214 127.948 39.4521C121.361 44.5985 115.022 49.8548 107.957 54.5361C101.242 58.9859 95.5454 64.7205 89.2847 69.6078C79.743 77.0561 70.7018 84.8607 61.1842 92.3128C55.5185 96.749 49.1959 100.561 43.7009 105.113C41.7755 106.708 39.9172 108.739 37.7592 110.129C36.0261 111.246 34.3096 107.891 33.8336 107.276C30.055 102.396 23.5528 99.4961 19.9028 94.3579C17.608 91.1273 16.3407 86.965 13.4538 84.1034C12.0756 82.7373 8.57666 79.7068 10.6359 77.2552C12.7384 74.7521 17.9513 73.0818 20.9406 71.123C23.2708 69.596 26.1069 67.7154 28.6796 66.5469C30.5494 65.6978 32.4566 64.3502 34.1715 63.2848C38.6844 60.4809 34.1075 61.9759 31.1543 63.1607" stroke="#00ADB5" stroke-opacity="0.5" stroke-linecap="round" stroke-linejoin="round"/>
<path d="M16.9681 81.1045C26.7425 85.1576 35.1098 91.6701 42.2696 98.2152C42.451 98.381 44.2907 99.276 43.9288 99.7241C43.2302 100.589 36.9159 97.7445 36.315 97.456" stroke="#00ADB5" stroke-opacity="0.5" stroke-linecap="round" stroke-linejoin="round"/>
<path d="M28.4316 72.3787C36.6734 73.3862 41.2284 76.5492 47.5473 79.7716C50.362 81.207 53.2576 82.4626 55.7151 84.246C56.8691 85.0834 57.6083 86.2736 58.6534 87.199C60.0858 88.4673 53.8478 86.0785 53.1119 85.8053" stroke="#00ADB5" stroke-opacity="0.5" stroke-linecap="round" stroke-linejoin="round"/>
<path d="M41.6207 65.1326C46.9771 68.7904 52.3731 72.3851 57.9406 75.8481C60.0557 77.1637 62.5044 78.3143 64.2622 79.946C67.3825 82.8424 63.2905 79.0888 61.8666 78.0593" stroke="#00ADB5" stroke-opacity="0.5" stroke-linecap="round" stroke-linejoin="round"/>
<path d="M50.5435 60.0747C54.6623 61.7408 58.9874 63.3181 62.324 65.8132C63.6927 66.8367 64.7701 68.103 66.2571 69.0266C68.0891 70.1644 69.6387 71.5575 71.4893 72.6556C74.1245 74.2192 74.4835 74.7217 71.3706 72.7374" stroke="#00ADB5" stroke-opacity="0.5" stroke-linecap="round" stroke-linejoin="round"/>
<path d="M62.1896 52.5229C66.6384 55.046 70.7172 57.6574 74.2732 60.9448C75.8482 62.4007 77.0369 64.1519 79.1517 65.1673C81.089 66.0977 82.5137 66.2696 80.3196 64.6509" stroke="#00ADB5" stroke-opacity="0.5" stroke-linecap="round" stroke-linejoin="round"/>
<path d="M73.4515 44.895C77.3837 47.0088 81.2867 48.9034 84.2508 51.8612C85.6077 53.2152 86.6024 54.8348 88.1592 56.0495C91.3205 58.5161 89.0732 57.3459 86.7686 55.6895" stroke="#00ADB5" stroke-opacity="0.5" stroke-linecap="round" stroke-linejoin="round"/>
<path d="M83.9421 37.1138C89.324 41.0764 93.6159 45.9429 99.0164 49.8474C102.653 52.4765 97.5155 48.1864 96.6846 47.415" stroke="#00ADB5" stroke-opacity="0.5" stroke-linecap="round" stroke-linejoin="round"/>
<path d="M96.3535 30.4722C101.659 28.238 107.198 25.6628 110.492 21.2862C111.4 20.0794 112.504 18.9936 112.99 17.6939C113.656 15.9089 113.469 16.6635 111.711 17.9672" stroke="#00ADB5" stroke-opacity="0.5" stroke-linecap="round" stroke-linejoin="round"/>
<path d="M103.742 35.1609C108.182 31.7085 113.135 27.9259 116.613 23.7853C118.348 21.72 121.471 19.0865 117.173 22.2739" stroke="#00ADB5" stroke-opacity="0.5" stroke-linecap="round" stroke-linejoin="round"/>
<path d="M115.76 40.009C119.871 36.3956 123.547 33.0514 127.387 29.3243C128.627 28.1201 132.143 26.3441 128.029 27.6501" stroke="#00ADB5" stroke-opacity="0.5" stroke-linecap="round" stroke-linejoin="round"/>
<path d="M113.07 38.717C117.275 35.6436 122.041 32.0796 125.546 28.4008C126.481 27.4194 127.243 26.3575 128.114 25.3491C129.574 23.6598 129.58 24.1744 127.671 24.5448" stroke="#00ADB5" stroke-opacity="0.5" stroke-linecap="round" stroke-linejoin="round"/>
<path d="M26.5809 85.2858C46.5614 76.9019 53.6363 59.428 70.5445 48.1006C72.6014 46.7226 74.3208 45.2544 76.6425 44.2C78.1949 43.495 80.0551 43.0324 81.4959 42.1913C82.3749 41.6783 89.769 36.7304 84.7946 38.9895" stroke="#00ADB5" stroke-opacity="0.5" stroke-linecap="round" stroke-linejoin="round"/>
<path d="M18.3136 81.7505C20.7503 79.413 22.9043 77.4046 25.8363 75.583C26.3172 75.2842 27.0116 75.1651 27.4248 74.7917C28.2435 74.052 29.479 72.9663 29.8774 72.0858C31.4465 68.6183 36.7524 68.6328 39.8491 66.6355C42.7949 64.7355 45.6419 62.8272 48.6381 60.9403C51.9391 58.8614 53.5664 57.1803 56.3331 54.6804C58.8746 52.3841 61.3533 50.0717 64.0117 47.8695C66.1864 46.0679 69.4578 44.2845 70.9838 42.1195C72.7061 39.6761 76.6585 36.6578 79.8292 36.7198C80.9183 36.7412 88.5402 39.6272 83.5508 37.7948" stroke="#00ADB5" stroke-opacity="0.5" stroke-linecap="round" stroke-linejoin="round"/>
<path d="M34.4687 87.9878C49.6782 80.2868 59.4979 66.1108 70.5949 54.9903C74.6823 50.8942 80.1301 47.8664 84.3755 43.816C86.1914 42.0836 89.9537 40.038 85.8416 40.5247" stroke="#00ADB5" stroke-opacity="0.5" stroke-linecap="round" stroke-linejoin="round"/>
<path d="M39.0729 91.176C52.9815 83.2845 62.9805 70.3804 73.7691 59.8335C78.6773 55.0352 83.4481 50.1633 88.4043 45.3942C90.664 43.22 94.2998 41.6126 89.5737 44.109" stroke="#00ADB5" stroke-opacity="0.5" stroke-linecap="round" stroke-linejoin="round"/>
<path d="M43.2637 97.3168C52.2707 90.0386 59.7835 82.4319 67.4532 74.3209C72.1169 69.3891 76.3102 63.9628 81.6156 59.3982C84.6597 56.7791 87.1326 53.8346 89.9453 51.1044C91.0784 50.0046 91.9256 48.7761 93.0851 47.6815C95.697 45.2157 93.8122 47.3929 92.0408 48.7702" stroke="#00ADB5" stroke-opacity="0.5" stroke-linecap="round" stroke-linejoin="round"/>
<path d="M44.7854 99.8939C49.2696 96.2578 55.6169 92.5304 58.8878 88.0987C60.0753 86.4897 63.0014 82.5985 64.8275 81.4909C67.2416 80.0266 68.6708 77.3266 70.5311 75.521C72.4683 73.6406 74.364 71.8051 76.4345 69.991C78.376 68.2899 79.2988 65.5827 81.6232 64.0455C84.2125 62.3331 85.6859 59.9664 87.8311 58.0281C89.6878 56.3505 93.042 54.4519 95.2464 53.0824C96.4678 52.3236 97.3793 51.3736 98.7302 50.76C101.468 49.5166 99.7095 50.1931 97.3343 50.3885" stroke="#00ADB5" stroke-opacity="0.5" stroke-linecap="round" stroke-linejoin="round"/>
<path d="M95.8597 31.7017C99.104 32.0361 103.158 32.0613 106 33.1854C107.834 33.9108 109.414 34.6684 106.074 33.3475" stroke="#00ADB5" stroke-opacity="0.5" stroke-linecap="round" stroke-linejoin="round"/>
<path d="M99.9565 26.825C104.586 27.2929 107.799 28.0387 111.404 29.6424C113.761 30.6908 113.404 30.3674 110.934 29.3807" stroke="#00ADB5" stroke-opacity="0.5" stroke-linecap="round" stroke-linejoin="round"/>
<path d="M106.37 21.6494C110.207 23.043 113.887 24.7031 117.896 25.8415C120.255 26.5111 118.957 26.5911 117.139 26.06" stroke="#00ADB5" stroke-opacity="0.5" stroke-linecap="round" stroke-linejoin="round"/>
<path d="M110.17 17.6616C114.256 18.7562 118.006 19.882 121.694 21.4215C123.376 22.1235 121.727 22.3657 120.458 21.7874" stroke="#00ADB5" stroke-opacity="0.5" stroke-linecap="round" stroke-linejoin="round"/>
<path d="M98.1913 29.8887C101.877 26.4139 105.551 23.1011 108.957 19.5811C109.924 18.581 115.752 12.9637 113.177 15.7929" stroke="#00ADB5" stroke-opacity="0.5" stroke-linecap="round" stroke-linejoin="round"/>
<path d="M100.849 34.9664C105.5 31.4829 112.159 26.7873 114.151 22.1381C114.737 20.7698 115.793 19.3497 117.198 18.2964C118.622 17.2281 120.035 16.6595 117.883 18.4322" stroke="#00ADB5" stroke-opacity="0.5" stroke-linecap="round" stroke-linejoin="round"/>
<path d="M97.468 35.2446C102.526 30.8296 106.749 27.7699 109.969 22.6683C110.805 21.3434 111.709 20.2217 112.933 19.1157C114.23 17.9437 116.02 16.7817 113.535 18.898" stroke="#00ADB5" stroke-opacity="0.5" stroke-linecap="round" stroke-linejoin="round"/>
<path d="M113.969 35.2922C115.9 36.1192 117.847 36.8679 119.884 37.5079C120.725 37.7722 119.72 37.1909 119.357 37.1189" stroke="#00ADB5" stroke-opacity="0.5" stroke-linecap="round" stroke-linejoin="round"/>
<path d="M118.749 29.6025C118.876 29.6828 126.262 34.3983 124.988 33.3048" stroke="#00ADB5" stroke-opacity="0.5" stroke-linecap="round" stroke-linejoin="round"/>
<path d="M123.885 27.0181C125.493 28.2109 130.445 31.6717 128.678 30.6231" stroke="#00ADB5" stroke-opacity="0.5" stroke-linecap="round" stroke-linejoin="round"/>
<path d="M111.245 37.7864C114.544 35.2149 121.711 30.0494 123.795 26.4312C124.616 25.0054 127.755 22.9398 124.771 25.1078" stroke="#00ADB5" stroke-opacity="0.5" stroke-linecap="round" stroke-linejoin="round"/>
<path d="M111.528 38.4113C111.787 38.5622 116.81 42.8712 118.363 40.3352C119.155 39.0408 120.187 37.3548 121.806 36.5089C124.647 35.0248 125.66 31.2392 128.539 29.9319C131.805 28.4487 131.78 26.5776 128.98 26.2265C127.879 26.0886 129.027 24.1859 127.827 24.4598C126.728 24.7105 126.2 24.4536 124.966 24.7672" stroke="#00ADB5" stroke-opacity="0.5" stroke-linecap="round" stroke-linejoin="round"/>
<path d="M95.5758 31.0767C97.1159 33.8685 97.3345 34.9188 100.321 35.8207C101.127 36.0641 102.306 35.4692 102.917 35.6611C104.125 36.0408 106.656 35.7682 107.745 34.7115C109.934 32.5867 110.813 31.275 113.922 29.7836C115.883 28.8427 117.618 26.9464 118.678 25.4169C119.843 23.7359 121.711 22.3584 122.929 20.6655C123.448 19.9446 120.259 18.5947 120.39 17.4334C120.427 17.1042 116.355 17.5504 115.716 17.3496C114.941 17.1062 114.631 16.6758 114.334 16.0221C113.9 15.0672 112.703 16.4471 111.143 16.7169" stroke="#00ADB5" stroke-opacity="0.5" stroke-linecap="round" stroke-linejoin="round"/>
<path d="M22.4089 76.8738C26.8397 77.7702 30.6214 79.1424 34.5068 80.6946C37.88 82.0422 41.8377 82.5183 45.1955 83.8146C47.586 84.7374 49.8571 87.2012 51.4931 88.8031C52.0382 89.3369 52.4294 89.8497 52.7809 90.4807C53.5872 91.9285 53.0479 88.2706 52.9971 87.8687" stroke="#00ADB5" stroke-opacity="0.5" stroke-linecap="round" stroke-linejoin="round"/>
<path d="M71.0516 43.4709C72.184 44.4109 76.5475 49.8118 76.1485 45.4296" stroke="#00ADB5" stroke-opacity="0.5" stroke-linecap="round" stroke-linejoin="round"/>
</svg>
