<svg width="24" height="18" viewBox="0 0 24 18" fill="none" xmlns="http://www.w3.org/2000/svg">
<path d="M22.54 3.42C22.4212 2.94541 22.1792 2.51057 21.8386 2.15941C21.498 1.80824 21.0707 1.55318 20.6 1.42C18.88 1 12 1 12 1C12 1 5.11996 1 3.39996 1.46C2.92921 1.59318 2.50194 1.84824 2.16131 2.19941C1.82068 2.55057 1.57875 2.98541 1.45996 3.46C1.14518 5.20556 0.991197 6.97631 0.999961 8.75C0.988741 10.537 1.14273 12.3213 1.45996 14.08C1.59092 14.5398 1.83827 14.9581 2.17811 15.2945C2.51794 15.6308 2.93878 15.8738 3.39996 16C5.11996 16.46 12 16.46 12 16.46C12 16.46 18.88 16.46 20.6 16C21.0707 15.8668 21.498 15.6118 21.8386 15.2606C22.1792 14.9094 22.4212 14.4746 22.54 14C22.8523 12.2676 23.0063 10.5103 23 8.75C23.0112 6.96295 22.8572 5.1787 22.54 3.42V3.42Z" stroke="#EEEEEE" stroke-opacity="0.75" stroke-width="2" stroke-linecap="round" stroke-linejoin="round"/>
<path d="M9.75 12.02L15.5 8.74998L9.75 5.47998V12.02Z" stroke="#EEEEEE" stroke-opacity="0.75" stroke-width="2" stroke-linecap="round" stroke-linejoin="round"/>
</svg>
